<svg width="13" height="21" viewBox="0 0 13 21" fill="none" xmlns="http://www.w3.org/2000/svg">
<path d="M5.55756 20.4419V-3.43323e-05H6.84663V20.4419H5.55756ZM6.20983 18.4722C4.97176 18.4722 3.89489 18.279 2.97923 17.8924C2.06357 17.5058 1.34907 16.9436 0.835743 16.2056C0.322411 15.4677 0.0438302 14.5713 1.19209e-06 13.5162H2.8256C2.87258 14.0766 3.04767 14.5422 3.35089 14.9132C3.65411 15.2841 4.05258 15.5613 4.54629 15.7446C5.04 15.9279 5.58678 16.0196 6.18663 16.0196C6.81713 16.0196 7.37357 15.9234 7.85597 15.7309C8.33837 15.5384 8.71629 15.2679 8.98971 14.9194C9.26314 14.5709 9.39985 14.1679 9.39985 13.7104C9.39985 13.2928 9.27933 12.948 9.03827 12.676C8.79721 12.404 8.45998 12.1744 8.02656 11.9874C7.59315 11.8003 7.08612 11.6345 6.50547 11.4898L4.68789 11.0154C3.355 10.6734 2.31308 10.1538 1.56213 9.45673C0.811179 8.75964 0.435705 7.84634 0.435705 6.71684C0.435705 5.77324 0.690796 4.9476 1.20098 4.23991C1.71116 3.53221 2.40675 2.9825 3.28775 2.59077C4.16875 2.19904 5.16741 2.00317 6.28374 2.00317C7.42412 2.00317 8.42279 2.20033 9.27973 2.59464C10.1367 2.98895 10.8074 3.53236 11.2919 4.22487C11.7765 4.91738 12.0292 5.71079 12.0501 6.60511H9.27094C9.19847 5.91732 8.89117 5.38487 8.34904 5.00774C7.80692 4.63062 7.10473 4.44205 6.24249 4.44205C5.64264 4.44205 5.12501 4.53293 4.68959 4.71469C4.25417 4.89645 3.9203 5.14575 3.68798 5.46257C3.45566 5.7794 3.3395 6.14077 3.3395 6.54668C3.3395 6.99442 3.47707 7.36131 3.75222 7.64734C4.02736 7.93337 4.37469 8.16225 4.79422 8.33398C5.21374 8.50572 5.63748 8.64529 6.06545 8.75271L7.56162 9.13514C8.15373 9.2755 8.73 9.46528 9.29046 9.70447C9.85091 9.94366 10.3552 10.2439 10.8034 10.6053C11.2516 10.9667 11.6072 11.404 11.8703 11.9174C12.1334 12.4307 12.265 13.0353 12.265 13.7311C12.265 14.6692 12.026 15.495 11.548 16.2084C11.0701 16.9219 10.3798 17.4775 9.47717 17.8754C8.57454 18.2733 7.48543 18.4722 6.20983 18.4722Z" fill="black"/>
</svg>
